<svg xmlns="http://www.w3.org/2000/svg" viewBox="0 0 64 64" fill="none">
  <!-- Fond circulaire orange -->
  <defs>
    <linearGradient id="orangeGrad3" x1="0%" y1="0%" x2="100%" y2="100%">
      <stop offset="0%" style="stop-color:#FB923C;stop-opacity:1" />
      <stop offset="100%" style="stop-color:#EA580C;stop-opacity:1" />
    </linearGradient>
  </defs>
  <circle cx="32" cy="32" r="30" fill="url(#orangeGrad3)"/>
  
  <!-- Bulle de chat principale (style moderne) -->
  <path d="M20 18 Q20 14 24 14 L36 14 Q40 14 40 18 L40 28 Q40 32 36 32 L28 32 L24 36 L24 32 Q20 32 20 28 Z" fill="white" opacity="0.95"/>
  
  <!-- Bulle de réponse -->
  <path d="M24 38 Q24 34 28 34 L44 34 Q48 34 48 38 L48 46 Q48 50 44 50 L36 50 L32 54 L32 50 Q28 50 28 46 Z" fill="white" opacity="0.9"/>
  
  <!-- Points de notification -->
  <circle cx="52" cy="20" r="6" fill="#EF4444"/>
  <text x="52" y="24" font-family="Arial, sans-serif" font-size="8" font-weight="bold" fill="white" text-anchor="middle">3</text>
</svg>
